<?xml version="1.0" encoding="UTF-8" standalone="no"?>
<svg
   xmlns:dc="http://purl.org/dc/elements/1.1/"
   xmlns:cc="http://creativecommons.org/ns#"
   xmlns:rdf="http://www.w3.org/1999/02/22-rdf-syntax-ns#"
   xmlns:svg="http://www.w3.org/2000/svg"
   xmlns="http://www.w3.org/2000/svg"
   viewBox="0 0 225 226"
   height="226"
   width="225"
   xml:space="preserve"
   version="1.1"
   id="svg2"><metadata
     id="metadata8"><rdf:RDF><cc:Work
         rdf:about=""><dc:format>image/svg+xml</dc:format><dc:type
           rdf:resource="http://purl.org/dc/dcmitype/StillImage" /><dc:title></dc:title></cc:Work></rdf:RDF></metadata><defs
     id="defs6"><clipPath
       id="clipPath16"
       clipPathUnits="userSpaceOnUse"><path
         id="path18"
         d="M 0,180 180,180 180,0 0,0 0,180 Z" /></clipPath></defs><g
     transform="matrix(1.25,0,0,-1.25,0,226)"
     id="g10"><g
       transform="matrix(2.7761213,0,0,2.7761213,-161.71473,-137.85486)"
       id="g12"><g
         clip-path="url(#clipPath16)"
         id="g14"><g
           transform="translate(84.834,75.4326)"
           id="g20"><path
             id="path22"
             style="fill:#4d4c4e;fill-opacity:1;fill-rule:nonzero;stroke:none"
             d="m 0,0 c -10.047,0 -13.423,0.455 -13.423,0.455 0,0 0.525,8.014 4.192,9.454 3.665,1.443 4.564,1.238 5.835,2.006 0.032,0.018 0.064,0.037 0.095,0.053 l 0,2.157 c -1.22,1.07 -2.193,2.683 -2.762,4.527 -0.662,0.711 -1.044,1.548 -1.044,2.443 0,0.614 0.182,1.199 0.509,1.738 0.217,4.518 3.091,7.508 6.607,7.508 3.518,0 6.392,-2.99 6.607,-7.508 C 6.944,22.294 7.125,21.709 7.125,21.095 7.125,20.2 6.743,19.363 6.081,18.652 5.514,16.808 4.54,15.196 3.32,14.126 l 0,-2.158 C 3.352,11.952 3.383,11.933 3.414,11.915 4.688,11.147 5.585,11.352 9.252,9.909 12.919,8.469 13.441,0.455 13.441,0.455 13.441,0.455 10.047,0 0,0 m 16.881,39.06 -41.098,0 c -1.307,0 -2.365,-1.059 -2.365,-2.365 l 0,-44.939 c 0,-1.306 1.058,-2.363 2.365,-2.363 l 41.098,0 21.285,24.832 -21.285,24.835 z" /></g></g></g></g></svg>