<?xml version="1.0" encoding="iso-8859-1"?>
<!DOCTYPE svg PUBLIC "-//W3C//DTD SVG 1.1//EN" "http://www.w3.org/Graphics/SVG/1.1/DTD/svg11.dtd">
<svg version="1.1" xmlns="http://www.w3.org/2000/svg"
     xmlns:xlink="http://www.w3.org/1999/xlink" x="0px" y="0px"
     width="225px" height="173px"
     viewBox="0 0 225 173"
     xml:space="preserve">
  <path d="M 92.24,136.56
           C 127.11,136.56 138.89,134.98 138.89,134.98
             138.89,134.98 137.07,107.17 124.35,102.17
             111.62,97.16 108.51,97.87 104.09,95.21
             103.98,95.15 103.88,95.08 103.76,95.03
             103.76,95.03 103.76,87.54 103.76,87.54
             108.00,83.82 111.38,78.23 113.35,71.83
             115.64,69.36 116.97,66.46 116.97,63.35
             116.97,61.22 116.34,59.19 115.20,57.32
             114.46,41.64 104.48,31.27 92.27,31.27
             80.07,31.27 70.10,41.64 69.35,57.32
             68.21,59.19 67.58,61.22 67.58,63.35
             67.58,66.46 68.91,69.36 71.20,71.83
             73.18,78.23 76.55,83.83 80.79,87.54
             80.79,87.54 80.79,95.03 80.79,95.03
             80.68,95.08 80.57,95.15 80.46,95.21
             76.05,97.87 72.93,97.16 60.21,102.17
             47.49,107.17 45.66,134.98 45.66,134.98
             45.66,134.98 57.38,136.56 92.24,136.56M 224.69,87.19
           C 224.69,87.19 150.82,173.36 150.82,173.36
             150.82,173.36 8.21,173.36 8.21,173.36
             3.67,173.36 -0.00,169.70 -0.00,165.16
             -0.00,165.16 -0.00,9.22 -0.00,9.22
             -0.00,4.69 3.67,1.01 8.21,1.01
             8.21,1.01 150.82,1.01 150.82,1.01
             150.82,1.01 224.69,87.19 224.69,87.19 Z" />
</svg>
