<?xml version="1.0" encoding="iso-8859-1"?>
<!-- Generator: Adobe Illustrator 16.0.0, SVG Export Plug-In . SVG Version: 6.00 Build 0)  -->
<!DOCTYPE svg PUBLIC "-//W3C//DTD SVG 1.1//EN" "http://www.w3.org/Graphics/SVG/1.1/DTD/svg11.dtd">
<svg version="1.1" id="Capa_1" xmlns="http://www.w3.org/2000/svg" xmlns:xlink="http://www.w3.org/1999/xlink" x="0px" y="0px"
	 width="952.22px" height="952.22px" viewBox="0 0 952.22 952.22" style="enable-background:new 0 0 952.22 952.22;"
	 xml:space="preserve">
<g>
	<path d="M34.16,489.385c28.3,65.2,72.1,129.2,130.1,190.4c74.9,79,173.4,152.7,292.6,219l0.3,0.2c11.8,6.6,26.2,6.6,38,0l0.3-0.2
		c62.9-35,120.101-72,171-110.8h-120.7c-44.1,0-80-35.9-80-80v-33.4c0-44.1,35.9-80,80-80H858.36
		c24.399-34.5,44.399-69.7,59.8-105.2c20.8-40.399,32.2-84.3,33.8-130.3c0.3-5.9,0.3-10,0.2-11.8c-0.1-40.2-7.7-79.2-22.6-116
		c-14.5-35.7-35.301-67.7-61.7-95.2c-26.4-27.5-57.2-49.1-91.5-64.2c-35.5-15.7-73.2-23.6-112.101-23.6
		c-69.199,0-135.899,25.8-188.1,72.8c-52.3-47-118.9-72.8-188.1-72.8c-38.9,0-76.601,7.9-112.101,23.6
		c-34.3,15.1-65.1,36.7-91.5,64.2c-26.4,27.5-47.2,59.5-61.7,95.2c-15,36.8-22.6,75.8-22.7,115.9c-0.1,1.9-0.1,6,0.2,11.9
		C1.96,405.186,13.26,448.985,34.16,489.385z"/>
	<path d="M919.66,707.985v-33.4c0-27.6-22.4-50-50-50h-33.7h-290.2c-27.6,0-50,22.4-50,50v33.4c0,27.6,22.4,50,50,50h158.4h165.4
		C897.26,757.985,919.66,735.686,919.66,707.985z"/>
</g>
<g>
</g>
<g>
</g>
<g>
</g>
<g>
</g>
<g>
</g>
<g>
</g>
<g>
</g>
<g>
</g>
<g>
</g>
<g>
</g>
<g>
</g>
<g>
</g>
<g>
</g>
<g>
</g>
<g>
</g>
</svg>
