<?xml version="1.0" encoding="iso-8859-1"?>
<svg version="1.1" id="Capa_1" xmlns="http://www.w3.org/2000/svg" xmlns:xlink="http://www.w3.org/1999/xlink" x="0px" y="0px"
	 viewBox="0 0 556.92 556.92" style="enable-background:new 0 0 556.92 556.92;" xml:space="preserve">
<g>
	<g>
		<path style="fill:#010002;" d="M228.275,330.48c-2.04,2.039-3.264,3.875-3.672,5.508l-36.108,111.996
			c-1.632,4.488-0.816,8.16,2.448,11.018c2.04,2.041,4.488,3.061,7.344,3.061c0.816,0,1.428-0.102,1.836-0.307
			c0.408-0.203,0.816-0.309,1.224-0.309l113.221-36.719c2.038-1.223,3.264-2.041,3.672-2.449l204.407-204.407
			c2.039-2.04,3.062-4.488,3.062-7.344s-1.021-5.304-3.062-7.344l-75.889-76.5c-2.04-2.04-4.489-3.06-7.344-3.06
			c-2.857,0-5.304,1.02-7.344,3.06l-7.347,7.344V15.912c0-4.488-1.527-8.16-4.59-11.016c-3.059-2.856-6.834-4.284-11.32-4.284
			H183.599L182.375,0h-29.376c-0.408,0-0.816,0.204-1.224,0.612h-3.672v1.836L33.047,115.668c-0.816,0.816-1.224,1.632-1.224,2.448
			h-0.612v1.836v29.988v391.068c0,4.486,1.428,8.26,4.284,11.322c2.856,3.059,6.528,4.59,11.016,4.59h108.324h146.268h107.715
			c4.485,0,8.261-1.631,11.319-4.896c3.063-3.264,4.59-7.344,4.59-12.24V392.902c0-2.854-0.714-5.098-2.142-6.729
			s-3.774-0.818-7.038,2.447l-7.344,7.344c-3.266,2.855-7.446,6.834-12.546,11.934c-5.102,5.104-12.14,11.938-21.114,20.502v78.336
			h-73.44H154.835h-73.44V156.06h100.98c3.672,0,5.508-2.04,5.508-6.12V50.184h186.66v134.028L228.275,330.48z M230.723,419.221
			l20.196-63.037l42.228,42.23L230.723,419.221z"/>
	</g>
</g>
</svg>
