<?xml version="1.0" encoding="iso-8859-1"?>
<!-- Generator: Adobe Illustrator 18.1.1, SVG Export Plug-In . SVG Version: 6.00 Build 0)  -->
<svg version="1.1" id="Capa_1" xmlns="http://www.w3.org/2000/svg" xmlns:xlink="http://www.w3.org/1999/xlink" x="0px" y="0px"
	 viewBox="0 0 15.974 15.974" style="enable-background:new 0 0 15.974 15.974;" xml:space="preserve">
<g>
	<g>
		<path style="fill:#010002;" d="M15.974,9.864c0-1.428-0.797-2.701-2.045-3.554c0.088,0.396,0.139,0.803,0.139,1.221
			c0,3.228-2.74,5.919-6.348,6.497c0.763,0.308,1.617,0.488,2.529,0.488c0.858,0,1.67-0.158,2.401-0.434
			c0.927,0.316,1.939,0.398,2.776,0.398c-0.436-0.522-0.737-1.034-0.953-1.484C15.402,12.168,15.974,11.071,15.974,9.864z"/>
		<path style="fill:#010002;" d="M12.54,7.034c0-3.075-2.812-5.576-6.271-5.576S0,3.958,0,7.033c0,1.431,0.63,2.814,1.739,3.849
			c-0.249,0.606-0.579,1.179-0.982,1.704C0.638,12.74,0.62,12.95,0.71,13.123c0.087,0.165,0.258,0.268,0.443,0.268h0.024
			c0.529-0.025,1.581-0.377,2.695-1.084c0.596,0.105,1.931,0.303,2.397,0.303C9.786,12.609,12.54,10.161,12.54,7.034z"/>
	</g>
</g>
<g>
</g>
<g>
</g>
<g>
</g>
<g>
</g>
<g>
</g>
<g>
</g>
<g>
</g>
<g>
</g>
<g>
</g>
<g>
</g>
<g>
</g>
<g>
</g>
<g>
</g>
<g>
</g>
<g>
</g>
</svg>
