<?xml version="1.0" encoding="iso-8859-1"?>
<!-- Generator: Adobe Illustrator 16.0.0, SVG Export Plug-In . SVG Version: 6.00 Build 0)  -->
<!DOCTYPE svg PUBLIC "-//W3C//DTD SVG 1.1//EN" "http://www.w3.org/Graphics/SVG/1.1/DTD/svg11.dtd">
<svg version="1.1" id="Capa_1" xmlns="http://www.w3.org/2000/svg" xmlns:xlink="http://www.w3.org/1999/xlink" x="0px" y="0px"
	 width="125.011px" height="125.011px" viewBox="0 0 125.011 125.011" style="enable-background:new 0 0 125.011 125.011;"
	 xml:space="preserve">
<g>
	<g>
		<path d="M5.893,32.006c0.486,1.163,1.124,2.364,1.891,3.49c0.775,1.027,1.658,2.125,2.654,2.988
			c0.991,0.838,2.067,1.69,3.193,2.292c2.264,1.291,4.698,2.047,7.103,2.262c2.397,0.229,4.748-0.092,6.794-0.708
			c1.034-0.325,1.977-0.688,2.839-1.115c0.844-0.397,1.619-0.907,2.235-1.301c0.364-0.222,0.677-0.458,0.953-0.678
			c-15.047-3.429-19.182-9.784-19.182-9.784c2.351,2.963,13.068,6.03,19.756,7.717c-0.118-0.343-0.258-0.716-0.445-1.105
			c-0.291-0.644-0.613-1.482-1.02-2.272c-0.385-0.804-0.836-1.663-1.334-2.491c-0.996-1.681-2.173-3.313-3.47-4.695
			c-1.292-1.403-2.739-2.505-4.194-3.381c-0.792-0.394-1.472-0.794-2.274-1.064c-0.789-0.284-1.514-0.527-2.376-0.671
			c-0.78-0.171-1.566-0.294-2.478-0.353c-0.78-0.106-1.639-0.164-2.536-0.198c-0.936-0.079-1.788-0.147-2.534-0.202
			c-0.883-0.058-1.636-0.157-2.331-0.271c-0.645-0.13-1.338-0.198-1.745-0.284c-0.469-0.083-0.708-0.12-0.708-0.12
			s-0.157,0.205-0.356,0.582C6.141,21,5.78,21.596,5.559,22.304c-0.241,0.708-0.609,1.708-0.662,2.666
			c-0.094,1.002-0.11,2.159,0.031,3.388C5.121,29.498,5.429,30.743,5.893,32.006z"/>
		<path d="M55.829,27.297c0.392,0.849,0.9,1.619,1.299,2.238c0.221,0.359,0.46,0.671,0.678,0.952
			c3.431-15.047,9.778-19.182,9.778-19.182c-2.963,2.352-6.026,13.062-7.711,19.753c0.344-0.116,0.715-0.257,1.104-0.445
			c0.645-0.291,1.479-0.609,2.274-1.02c0.799-0.39,1.658-0.845,2.484-1.341c1.679-0.993,3.312-2.169,4.697-3.47
			c1.393-1.293,2.505-2.741,3.374-4.199c0.394-0.784,0.801-1.468,1.075-2.269c0.28-0.787,0.526-1.513,0.67-2.375
			c0.165-0.784,0.295-1.567,0.35-2.481c0.103-0.78,0.164-1.643,0.198-2.54c0.075-0.934,0.15-1.786,0.202-2.532
			c0.062-0.883,0.157-1.632,0.273-2.331c0.127-0.646,0.199-1.338,0.287-1.745c0.072-0.469,0.113-0.712,0.113-0.712
			s-0.205-0.154-0.582-0.356c-0.355-0.185-0.947-0.547-1.656-0.767c-0.711-0.239-1.711-0.609-2.669-0.66
			c-0.999-0.096-2.163-0.109-3.388,0.034c-1.144,0.188-2.384,0.503-3.648,0.965c-1.16,0.486-2.359,1.123-3.487,1.893
			c-1.027,0.77-2.127,1.656-2.989,2.652c-0.838,0.992-1.689,2.063-2.292,3.193c-1.29,2.262-2.048,4.699-2.264,7.101
			c-0.229,2.398,0.094,4.75,0.707,6.8C55.037,25.497,55.401,26.438,55.829,27.297z"/>
		<path d="M21.489,57.439c0.234-0.202,0.431-0.407,0.607-0.592c-11.134-0.75-14.806-4.818-14.806-4.818
			c2.014,1.848,10.008,2.827,14.984,3.271c-0.126-0.226-0.267-0.479-0.445-0.739c-0.277-0.428-0.609-0.993-0.989-1.509
			c-0.372-0.517-0.787-1.085-1.237-1.619c-0.9-1.088-1.923-2.118-3.01-2.967c-1.08-0.845-2.235-1.479-3.375-1.93
			c-0.605-0.195-1.132-0.407-1.742-0.51c-0.592-0.113-1.134-0.206-1.772-0.212c-0.575-0.031-1.153-0.038-1.809,0.027
			c-0.572,0.014-1.194,0.075-1.839,0.147c-0.669,0.062-1.287,0.096-1.826,0.147c-0.642,0.058-1.184,0.068-1.695,0.068
			c-0.474-0.017-0.976,0.007-1.28-0.007c-0.337,0-0.518,0-0.518,0s-0.084,0.161-0.19,0.455c-0.091,0.277-0.284,0.739-0.361,1.276
			c-0.091,0.527-0.238,1.283-0.167,1.978c0.046,0.726,0.161,1.557,0.407,2.413c0.262,0.798,0.623,1.646,1.1,2.492
			c0.472,0.773,1.068,1.564,1.738,2.275c0.669,0.65,1.426,1.335,2.231,1.831c0.806,0.489,1.668,0.979,2.541,1.28
			c1.759,0.661,3.588,0.931,5.33,0.811c1.742-0.103,3.384-0.599,4.775-1.273c0.698-0.349,1.336-0.719,1.899-1.119
			C20.596,58.233,21.097,57.789,21.489,57.439z"/>
		<path d="M40.665,39.032c0.134,0.356,0.291,0.705,0.414,0.985c0.069,0.171,0.139,0.325,0.217,0.459
			c1.433-2.581,3.612-6.817,3.381-8.412c0,0,0.77,3.146-2.568,8.836c0.147-0.021,0.318-0.055,0.482-0.099
			c0.305-0.076,0.695-0.165,1.059-0.315c0.389-0.147,0.78-0.329,1.184-0.555c0.792-0.462,1.578-1.102,2.211-1.917
			c0.638-0.811,1.119-1.786,1.377-2.871c0.14-0.52,0.193-1.115,0.221-1.663c0.024-0.571-0.06-1.164-0.154-1.711
			c-0.123-0.562-0.314-1.116-0.528-1.605c-0.267-0.52-0.558-0.975-0.859-1.369c-0.337-0.4-0.708-0.743-1.04-1.006
			c-0.312-0.267-0.739-0.441-1.027-0.579c-0.28-0.133-0.582-0.195-0.743-0.253c-0.173-0.034-0.277-0.058-0.277-0.058
			s-0.067,0.089-0.173,0.256c-0.094,0.154-0.275,0.397-0.426,0.64c-0.166,0.243-0.354,0.506-0.594,0.801
			c-0.208,0.256-0.435,0.534-0.683,0.852c-0.245,0.288-0.481,0.578-0.679,0.845c-0.247,0.298-0.441,0.582-0.614,0.876
			c-0.21,0.305-0.349,0.606-0.486,0.938c-0.151,0.321-0.228,0.66-0.327,1.023c-0.164,0.702-0.238,1.479-0.178,2.296
			c0.048,0.804,0.21,1.646,0.448,2.457C40.392,38.282,40.535,38.676,40.665,39.032z"/>
		<path d="M50.79,48.871c0.091,0.25,0.199,0.486,0.282,0.681c0.05,0.113,0.093,0.219,0.144,0.315
			c0.992-1.776,2.493-4.699,2.334-5.804c0,0,0.53,2.166-1.77,6.098c0.106-0.01,0.224-0.034,0.337-0.072
			c0.21-0.051,0.472-0.113,0.729-0.219c0.266-0.099,0.536-0.229,0.816-0.383c0.546-0.318,1.09-0.763,1.524-1.321
			c0.445-0.551,0.773-1.235,0.95-1.981c0.098-0.363,0.133-0.77,0.154-1.15c0.018-0.394-0.046-0.804-0.109-1.181
			c-0.087-0.387-0.221-0.773-0.364-1.105c-0.182-0.356-0.382-0.671-0.592-0.945c-0.234-0.277-0.486-0.517-0.722-0.695
			c-0.221-0.178-0.511-0.298-0.707-0.397c-0.2-0.092-0.4-0.137-0.511-0.171c-0.12-0.024-0.193-0.034-0.193-0.034
			s-0.05,0.058-0.12,0.174c-0.058,0.106-0.191,0.274-0.291,0.435c-0.107,0.171-0.248,0.353-0.409,0.558
			c-0.147,0.171-0.294,0.363-0.474,0.585c-0.164,0.202-0.328,0.4-0.469,0.589c-0.164,0.202-0.298,0.4-0.421,0.605
			c-0.147,0.212-0.241,0.421-0.335,0.64c-0.106,0.229-0.156,0.458-0.221,0.712c-0.113,0.479-0.169,1.02-0.123,1.581
			c0.027,0.558,0.14,1.14,0.304,1.697C50.603,48.357,50.701,48.624,50.79,48.871z"/>
		<path d="M39.411,43.854c-0.298-0.041-0.674-0.092-1.059-0.116c-0.375-0.031-0.799-0.048-1.201-0.041
			c-0.842,0-1.705,0.082-2.481,0.263c-0.802,0.175-1.531,0.459-2.156,0.818c-0.318,0.198-0.62,0.369-0.89,0.602
			c-0.277,0.226-0.529,0.445-0.763,0.732c-0.236,0.25-0.45,0.513-0.671,0.832c-0.202,0.277-0.405,0.582-0.623,0.896
			c-0.234,0.329-0.438,0.63-0.621,0.894c-0.214,0.311-0.416,0.568-0.602,0.797c-0.181,0.216-0.361,0.462-0.488,0.585
			c-0.128,0.147-0.195,0.24-0.195,0.24s0.048,0.099,0.137,0.253c0.094,0.144,0.241,0.407,0.448,0.644
			c0.214,0.239,0.505,0.599,0.844,0.825c0.344,0.253,0.775,0.513,1.259,0.722c0.455,0.174,0.98,0.332,1.555,0.438
			c0.525,0.075,1.114,0.096,1.689,0.062c0.546-0.068,1.143-0.158,1.679-0.335c0.522-0.178,1.073-0.397,1.535-0.681
			c0.97-0.551,1.773-1.293,2.368-2.125c0.604-0.838,0.996-1.769,1.217-2.663c0.103-0.455,0.167-0.876,0.197-1.29
			c0.038-0.397,0.021-0.794,0.007-1.105c0-0.178-0.017-0.349-0.04-0.493c-4.521,4.805-7.754,4.952-7.754,4.952
			c1.595-0.243,5.039-3.528,7.118-5.633C39.765,43.891,39.596,43.867,39.411,43.854z"/>
		<path d="M31.814,63.722c-0.029-0.171-0.07-0.349-0.124-0.482c-3.711,5.459-6.882,6.099-6.882,6.099
			c1.545-0.466,4.435-4.25,6.153-6.652c-0.157-0.011-0.321-0.011-0.511,0.01c-0.294,0.007-0.686,0.011-1.066,0.052
			c-0.372,0.027-0.791,0.071-1.194,0.144c-0.83,0.13-1.668,0.349-2.411,0.644c-0.769,0.298-1.438,0.698-2,1.146
			c-0.288,0.246-0.558,0.469-0.789,0.739c-0.234,0.26-0.445,0.513-0.638,0.835c-0.197,0.28-0.365,0.574-0.532,0.927
			c-0.157,0.309-0.316,0.65-0.471,0.982c-0.185,0.37-0.338,0.685-0.469,0.985c-0.164,0.343-0.323,0.63-0.474,0.876
			c-0.147,0.24-0.287,0.507-0.392,0.664c-0.101,0.157-0.154,0.25-0.154,0.25s0.06,0.103,0.167,0.239
			c0.12,0.123,0.305,0.363,0.544,0.568c0.252,0.198,0.592,0.507,0.963,0.667c0.378,0.202,0.844,0.391,1.355,0.521
			c0.484,0.096,1.02,0.171,1.605,0.185c0.534-0.014,1.112-0.071,1.675-0.205c0.538-0.144,1.104-0.328,1.608-0.596
			c0.488-0.26,0.996-0.554,1.41-0.913c0.869-0.695,1.552-1.558,2.007-2.479c0.463-0.917,0.708-1.902,0.785-2.819
			c0.034-0.455,0.034-0.887,0-1.294C31.954,64.42,31.88,64.031,31.814,63.722z"/>
		<path d="M66.978,88.325c0.459-3.121,0.979-6.276,1.588-9.418c1.105-5.896,2.614-11.684,4.436-16.946
			c0.465-1.318,1.02-2.481,1.54-3.724c0.099,0.212,0.137,0.428,0.28,0.626c0.366,0.53,0.883,1.002,1.499,1.352
			c0.294,0.178,0.644,0.318,0.972,0.438c0.336,0.116,0.709,0.168,1.061,0.206c0.363,0.024,0.739,0.007,1.068-0.034
			c0.369-0.065,0.698-0.168,0.985-0.281c0.314-0.133,0.582-0.301,0.804-0.455c0.216-0.147,0.397-0.373,0.534-0.521
			c0.13-0.15,0.223-0.318,0.28-0.407c0.056-0.099,0.09-0.157,0.09-0.157s-0.052-0.058-0.123-0.15
			c-0.083-0.086-0.195-0.243-0.315-0.373c-0.116-0.147-0.239-0.301-0.383-0.507c-0.11-0.164-0.24-0.359-0.397-0.564
			c-0.123-0.202-0.253-0.397-0.38-0.568c-0.144-0.206-0.273-0.37-0.424-0.531c-0.158-0.178-0.309-0.314-0.489-0.462
			c-0.172-0.147-0.356-0.257-0.559-0.376c-0.396-0.222-0.855-0.411-1.372-0.517c-0.493-0.116-1.04-0.167-1.574-0.167
			c-0.048,0-0.085,0.003-0.137,0.003c0.03-0.071,0.058-0.147,0.089-0.215c1.156-2.245,2.341-4.329,3.614-6.132
			c1.293-1.78,2.607-3.32,3.884-4.6c1.328-1.225,2.56-2.231,3.686-2.898c1.074-0.787,2.04-1.16,2.662-1.523
			c0.644-0.329,0.979-0.503,0.979-0.503s-0.37,0.096-1.058,0.281c-0.682,0.229-1.793,0.345-2.984,0.989
			c-1.279,0.5-2.717,1.321-4.332,2.382c-1.551,1.116-3.237,2.515-4.818,4.285c-1.595,1.759-3.121,3.836-4.531,6.143
			c-1.362,2.337-2.697,4.859-3.785,7.58c-1.099,2.721-2.177,5.551-2.963,8.511c-0.711,2.447-1.258,4.976-1.808,7.495
			c0.014-1.931-0.137-32.672-0.674-42.559c-0.052-1.057-0.108-2.067-0.171-3.039c-0.746,0.411-1.496,0.808-2.247,1.194
			c-0.038,0.609-0.077,1.198-0.111,1.834c-0.582,9.979-1.013,40.573-0.999,42.564c-0.549-2.519-1.101-5.044-1.812-7.494
			c-0.784-2.961-1.86-5.787-2.964-8.511c-1.086-2.717-2.426-5.239-3.781-7.58c-1.412-2.307-2.94-4.38-4.531-6.143
			c-1.581-1.77-3.267-3.169-4.822-4.285c-1.608-1.061-3.049-1.882-4.329-2.382c-1.197-0.647-2.301-0.76-2.98-0.989
			c-0.691-0.185-1.059-0.28-1.059-0.28s0.34,0.174,0.979,0.503c0.623,0.363,1.593,0.736,2.663,1.523
			c1.124,0.667,2.358,1.673,3.688,2.898c1.274,1.28,2.592,2.82,3.886,4.6c1.275,1.807,2.459,3.887,3.615,6.132
			c0.033,0.068,0.06,0.144,0.087,0.216c-0.048,0-0.09-0.004-0.142-0.004c-0.537,0-1.076,0.052-1.574,0.168
			c-0.508,0.103-0.97,0.291-1.367,0.517c-0.21,0.12-0.392,0.229-0.563,0.376c-0.176,0.147-0.334,0.284-0.484,0.462
			c-0.154,0.157-0.288,0.325-0.428,0.53c-0.13,0.171-0.26,0.366-0.385,0.568c-0.154,0.206-0.284,0.4-0.4,0.565
			c-0.14,0.205-0.258,0.359-0.378,0.506c-0.123,0.13-0.231,0.288-0.312,0.373c-0.081,0.092-0.123,0.147-0.123,0.147
			s0.033,0.065,0.087,0.161c0.063,0.089,0.147,0.256,0.28,0.407c0.137,0.147,0.324,0.376,0.532,0.52
			c0.223,0.154,0.498,0.322,0.803,0.455c0.291,0.113,0.621,0.215,0.989,0.281c0.333,0.044,0.705,0.062,1.073,0.034
			c0.346-0.038,0.726-0.089,1.061-0.206c0.33-0.116,0.678-0.256,0.967-0.438c0.618-0.353,1.129-0.821,1.504-1.352
			c0.14-0.202,0.18-0.417,0.281-0.626c0.515,1.242,1.069,2.406,1.538,3.723c1.819,5.264,3.321,11.054,4.43,16.947
			c0.616,3.138,1.134,6.297,1.598,9.417C47.828,61.909,24.234,59.024,24.234,59.024s19.547,5.044,30.589,31.782
			c6.013,14.551,4.303,29.786,4.432,32.459l3.249-0.011l3.23,0.014c0.131-2.673-1.575-17.904,4.438-32.459
			c11.043-26.737,30.587-31.782,30.587-31.782S77.166,61.916,66.978,88.325z M75.445,56.026c1.211,1.16,2.642,2.368,3.401,2.474
			c0,0-1.465-0.092-3.634-1.93C75.294,56.396,75.363,56.197,75.445,56.026z M46.16,58.5c0.761-0.106,2.19-1.314,3.403-2.474
			c0.08,0.171,0.147,0.366,0.224,0.544C47.627,58.405,46.16,58.5,46.16,58.5z"/>
		<path d="M91.447,39.234c0.28,0.219,0.599,0.455,0.958,0.677c0.616,0.394,1.39,0.904,2.231,1.3
			c0.862,0.428,1.811,0.791,2.844,1.116c2.047,0.616,4.4,0.938,6.793,0.708c2.406-0.216,4.839-0.968,7.104-2.262
			c1.122-0.603,2.197-1.455,3.189-2.293c0.992-0.862,1.882-1.961,2.655-2.991c0.767-1.122,1.403-2.324,1.889-3.487
			c0.466-1.259,0.773-2.505,0.966-3.648c0.144-1.229,0.126-2.385,0.034-3.388c-0.055-0.955-0.418-1.954-0.664-2.663
			c-0.219-0.708-0.582-1.304-0.767-1.66c-0.198-0.376-0.356-0.582-0.356-0.582s-0.239,0.037-0.711,0.116
			c-0.404,0.085-1.103,0.154-1.738,0.284c-0.698,0.113-1.451,0.212-2.334,0.273c-0.746,0.055-1.596,0.123-2.536,0.202
			c-0.894,0.034-1.756,0.092-2.536,0.198c-0.91,0.058-1.697,0.182-2.478,0.356c-0.862,0.144-1.588,0.383-2.375,0.667
			c-0.804,0.273-1.485,0.674-2.272,1.071c-1.458,0.876-2.901,1.975-4.191,3.377c-1.301,1.382-2.479,3.015-3.471,4.695
			c-0.503,0.825-0.951,1.687-1.342,2.484c-0.403,0.791-0.725,1.629-1.02,2.272c-0.188,0.391-0.332,0.764-0.444,1.105
			c6.69-1.687,17.405-4.75,19.759-7.717C110.631,29.453,106.494,35.808,91.447,39.234z"/>
		<path d="M124.82,47.929c-0.072-0.537-0.268-0.999-0.356-1.276c-0.109-0.294-0.194-0.455-0.194-0.455s-0.186,0-0.518,0
			c-0.301,0.017-0.808-0.01-1.279,0.007c-0.51,0-1.055-0.01-1.697-0.068c-0.537-0.051-1.157-0.085-1.824-0.147
			c-0.646-0.072-1.267-0.126-1.842-0.147c-0.656-0.065-1.231-0.058-1.807-0.027c-0.64,0.007-1.177,0.096-1.772,0.212
			c-0.609,0.103-1.136,0.314-1.738,0.51c-1.144,0.452-2.3,1.085-3.381,1.93c-1.085,0.845-2.112,1.878-3.005,2.967
			c-0.452,0.534-0.869,1.099-1.239,1.619c-0.376,0.514-0.712,1.082-0.992,1.509c-0.178,0.26-0.314,0.513-0.444,0.739
			c4.976-0.445,12.977-1.424,14.985-3.271c0,0-3.676,4.069-14.805,4.818c0.179,0.185,0.37,0.39,0.609,0.592
			c0.39,0.349,0.89,0.794,1.451,1.181c0.562,0.4,1.197,0.77,1.896,1.119c1.39,0.674,3.032,1.17,4.777,1.273
			c1.738,0.116,3.566-0.15,5.325-0.811c0.869-0.301,1.731-0.791,2.542-1.28c0.805-0.496,1.564-1.184,2.231-1.831
			c0.671-0.712,1.267-1.502,1.745-2.275c0.479-0.846,0.836-1.697,1.096-2.491c0.246-0.856,0.369-1.688,0.41-2.413
			C125.062,49.212,124.918,48.457,124.82,47.929z"/>
		<path d="M76.362,33.481c0.027,0.548,0.082,1.143,0.223,1.663c0.257,1.088,0.739,2.061,1.382,2.871
			c0.63,0.814,1.417,1.455,2.211,1.917c0.404,0.226,0.798,0.407,1.185,0.555c0.366,0.15,0.756,0.239,1.058,0.315
			c0.164,0.044,0.335,0.075,0.485,0.099c-3.34-5.695-2.566-8.836-2.566-8.836c-0.229,1.595,1.947,5.832,3.385,8.412
			c0.071-0.137,0.15-0.288,0.219-0.459c0.123-0.28,0.273-0.633,0.411-0.985c0.13-0.356,0.267-0.746,0.362-1.146
			c0.239-0.811,0.396-1.653,0.444-2.457c0.065-0.814-0.014-1.595-0.171-2.296c-0.099-0.363-0.178-0.698-0.328-1.023
			c-0.137-0.332-0.274-0.633-0.486-0.938c-0.175-0.294-0.369-0.578-0.619-0.876c-0.198-0.27-0.432-0.561-0.674-0.845
			c-0.254-0.318-0.479-0.596-0.685-0.852c-0.24-0.294-0.432-0.554-0.596-0.801c-0.15-0.24-0.335-0.482-0.424-0.64
			c-0.11-0.164-0.179-0.256-0.179-0.256s-0.103,0.021-0.273,0.058c-0.164,0.058-0.466,0.12-0.746,0.253
			c-0.287,0.137-0.712,0.312-1.026,0.579c-0.336,0.263-0.705,0.606-1.041,1.006c-0.301,0.394-0.595,0.849-0.862,1.369
			c-0.216,0.489-0.403,1.041-0.526,1.605C76.427,32.317,76.334,32.91,76.362,33.481z"/>
		<path d="M73.792,49.866c0.055-0.096,0.093-0.202,0.144-0.315c0.086-0.195,0.192-0.431,0.277-0.681
			c0.096-0.243,0.195-0.51,0.26-0.791c0.165-0.562,0.274-1.143,0.302-1.698c0.052-0.561-0.007-1.098-0.123-1.581
			c-0.062-0.253-0.106-0.482-0.22-0.711c-0.089-0.219-0.191-0.431-0.335-0.64c-0.123-0.205-0.253-0.404-0.417-0.605
			c-0.145-0.188-0.309-0.387-0.473-0.589c-0.182-0.219-0.332-0.414-0.476-0.585c-0.164-0.206-0.302-0.387-0.411-0.558
			c-0.092-0.161-0.229-0.329-0.294-0.435c-0.068-0.116-0.113-0.174-0.113-0.174s-0.075,0.01-0.194,0.034
			c-0.113,0.034-0.315,0.079-0.51,0.171c-0.202,0.1-0.486,0.219-0.712,0.397c-0.233,0.178-0.486,0.417-0.719,0.695
			c-0.213,0.274-0.411,0.589-0.596,0.944c-0.144,0.332-0.273,0.719-0.366,1.105c-0.062,0.376-0.12,0.787-0.1,1.181
			c0.021,0.38,0.055,0.787,0.15,1.15c0.179,0.746,0.507,1.427,0.948,1.981c0.438,0.558,0.979,1.002,1.53,1.321
			c0.28,0.154,0.547,0.284,0.817,0.383c0.253,0.106,0.521,0.168,0.726,0.219c0.109,0.034,0.232,0.058,0.339,0.072
			c-2.3-3.932-1.766-6.098-1.766-6.098C71.297,45.167,72.799,48.09,73.792,49.866z"/>
		<path d="M84.411,45.103c-0.014,0.312-0.034,0.708,0.007,1.105c0.031,0.414,0.096,0.835,0.195,1.29
			c0.223,0.893,0.615,1.824,1.218,2.663c0.596,0.832,1.396,1.574,2.368,2.128c0.466,0.281,1.014,0.5,1.54,0.678
			c0.53,0.178,1.13,0.271,1.677,0.335c0.575,0.034,1.164,0.01,1.69-0.062c0.568-0.106,1.096-0.264,1.551-0.438
			c0.489-0.208,0.913-0.469,1.259-0.722c0.343-0.226,0.63-0.585,0.842-0.825c0.206-0.236,0.356-0.5,0.452-0.644
			c0.089-0.154,0.137-0.253,0.137-0.253s-0.071-0.092-0.198-0.239c-0.13-0.127-0.305-0.373-0.489-0.585
			c-0.185-0.229-0.387-0.486-0.609-0.798c-0.171-0.263-0.383-0.564-0.616-0.893c-0.215-0.315-0.417-0.619-0.622-0.896
			c-0.223-0.318-0.432-0.585-0.671-0.832c-0.233-0.288-0.486-0.507-0.76-0.732c-0.268-0.232-0.568-0.404-0.89-0.603
			c-0.634-0.359-1.353-0.646-2.156-0.814c-0.78-0.181-1.636-0.267-2.478-0.267c-0.404-0.007-0.828,0.01-1.205,0.041
			c-0.383,0.024-0.763,0.079-1.064,0.116c-0.185,0.014-0.355,0.038-0.506,0.072c2.074,2.105,5.523,5.394,7.118,5.633
			c0,0-3.241-0.147-7.755-4.952C84.431,44.753,84.411,44.925,84.411,45.103z"/>
		<path d="M104.598,70.026c-0.144-0.246-0.305-0.533-0.476-0.876c-0.123-0.301-0.281-0.615-0.473-0.985
			c-0.15-0.335-0.308-0.674-0.465-0.982c-0.165-0.353-0.336-0.646-0.534-0.927c-0.191-0.322-0.404-0.575-0.637-0.835
			c-0.232-0.271-0.51-0.493-0.797-0.739c-0.559-0.448-1.232-0.849-1.988-1.146c-0.746-0.295-1.581-0.514-2.416-0.644
			c-0.394-0.072-0.812-0.116-1.191-0.144c-0.373-0.041-0.767-0.045-1.061-0.052c-0.195-0.021-0.366-0.021-0.514-0.01
			c1.711,2.405,4.606,6.19,6.153,6.652c0,0-3.173-0.644-6.886-6.099c-0.055,0.134-0.092,0.312-0.123,0.482
			c-0.062,0.309-0.134,0.698-0.164,1.096c-0.034,0.403-0.034,0.835-0.007,1.301c0.075,0.92,0.321,1.902,0.783,2.822
			c0.459,0.918,1.14,1.78,2.009,2.479c0.411,0.355,0.921,0.65,1.403,0.91c0.507,0.267,1.082,0.451,1.615,0.596
			c0.562,0.13,1.143,0.191,1.681,0.205c0.581-0.014,1.119-0.086,1.602-0.185c0.51-0.131,0.976-0.322,1.354-0.521
			c0.373-0.164,0.712-0.473,0.962-0.667c0.239-0.209,0.425-0.445,0.548-0.568c0.103-0.137,0.164-0.239,0.164-0.239
			s-0.055-0.093-0.15-0.25C104.892,70.529,104.749,70.266,104.598,70.026z"/>
	</g>
</g>
<g>
</g>
<g>
</g>
<g>
</g>
<g>
</g>
<g>
</g>
<g>
</g>
<g>
</g>
<g>
</g>
<g>
</g>
<g>
</g>
<g>
</g>
<g>
</g>
<g>
</g>
<g>
</g>
<g>
</g>
</svg>
