<?xml version="1.0" encoding="iso-8859-1"?>
<!DOCTYPE svg PUBLIC "-//W3C//DTD SVG 1.1//EN" "http://www.w3.org/Graphics/SVG/1.1/DTD/svg11.dtd">
<svg version="1.1" id="Capa_1" xmlns="http://www.w3.org/2000/svg" xmlns:xlink="http://www.w3.org/1999/xlink" x="0px" y="0px"
	 width="340.657px" height="340.657px" viewBox="0 0 340.657 340.657" style="enable-background:new 0 0 340.657 340.657;"
	 xml:space="preserve">
<g>
	<path d="M306.307,89.558c-36.721-3.672-78.336-1.224-114.445,5.508c-6.73,1.224-4.895,11.016,1.225,11.016
		c9.793,0,20.195,0.612,30.6,0.612c-18.971,15.3-36.719,32.436-55.692,47.736c-6.12-6.12-13.463-12.24-19.583-17.748
		c-7.344-6.732-14.076-13.464-21.42-20.196c-6.12-5.508-13.464-13.464-21.42-19.584c17.748,1.224,36.72,1.836,52.02-4.284
		c7.344-3.06,6.732-13.464-1.836-14.076c-23.868-1.224-47.736,1.224-71.604,0.612c-25.704-1.224-52.02-4.896-77.724-3.672
		c-8.568,0.612-8.568,12.24,0,13.464c14.688,1.836,29.988,3.06,45.288,4.284c17.136,17.136,36.108,33.048,53.856,49.572
		c10.404,9.18,20.196,20.196,30.6,29.988c-1.224,22.032,0,44.677,1.224,66.708c-15.3,1.225-30.6,3.061-45.288,6.12
		c-4.284,1.225-4.284,7.956,0,8.568c20.808,4.284,42.228,1.224,63.036,0.612c26.928-1.225,52.02,0,78.336,3.672
		c7.344,1.224,12.852-8.568,5.508-12.853c-15.301-9.18-35.496-9.18-53.855-8.567c1.223-17.137,2.447-36.108-0.613-52.021
		c36.721-18.972,66.096-52.02,97.309-78.336c9.18-0.612,17.748-1.224,26.316-3.06C316.711,101.797,313.65,90.169,306.307,89.558z"/>
	<path d="M335.682,136.069c-14.688-1.836-29.375-1.836-44.676-1.836c-2.447,0-5.508,2.448-5.508,5.508
		c1.836,17.136,1.225,34.272,1.836,51.408c0,11.016,0.611,23.256,5.508,33.66c-1.225,1.836-1.225,3.672,0.611,4.896
		c6.121,4.896,11.018,4.896,18.973,4.284c1.836,0,3.061-1.836,3.672-3.672c8.568-29.376,21.42-57.528,24.48-88.128
		C341.189,137.905,338.131,136.069,335.682,136.069z"/>
	<path d="M309.365,251.126c0-0.612,0-1.225-0.611-1.225c-0.611-3.06-2.447-6.12-6.732-6.12c-1.223,0-3.059,0-4.283,0.612
		c-3.061,0-6.121,0-9.18,0c-1.836,0.612-3.061,1.836-3.061,3.06c-2.447,2.448-2.447,6.732,0,9.792c0,2.448,1.836,4.896,3.672,5.509
		c6.121,2.447,12.24,3.06,18.359,2.447C316.711,265.201,317.322,252.35,309.365,251.126z"/>
</g>
</svg>
